<?xml version="1.0" encoding="iso-8859-1"?>
<!-- Generator: Adobe Illustrator 18.0.0, SVG Export Plug-In . SVG Version: 6.00 Build 0)  -->
<!DOCTYPE svg PUBLIC "-//W3C//DTD SVG 1.1//EN" "http://www.w3.org/Graphics/SVG/1.1/DTD/svg11.dtd">
<svg version="1.1" id="Capa_1" xmlns="http://www.w3.org/2000/svg" xmlns:xlink="http://www.w3.org/1999/xlink" x="0px" y="0px"
	 viewBox="0 0 470.274 470.274" style="enable-background:new 0 0 470.274 470.274;" xml:space="preserve">
<g id="XMLID_240_">
	<path id="XMLID_241_" d="M235.145,173.47c-1.888,0-3.422,1.535-3.422,3.414c0,1.887,1.534,3.421,3.422,3.421
		c1.879,0,3.421-1.534,3.421-3.421C238.566,175.005,237.024,173.47,235.145,173.47z"/>
	<path id="XMLID_242_" d="M235.137,39.748C104.883,39.748,0,134.032,0,212.095c0,39.283,24.784,61.727,60.786,74.666v52.512v0.008
		c0.008,39.604,78.071,91.246,174.351,91.246c96.288,0,174.351-51.643,174.359-91.246v-0.008v-52.512
		c35.994-12.939,60.778-35.391,60.778-74.666C470.274,134.032,365.392,39.748,235.137,39.748z M409.496,251.815l-0.258-10.301
		c-3.359-9.199-35.095-17.176-81.359-21.803c0.18,2.787,0.359,5.574,0.359,8.416c0,13.754-2.271,26.875-6.238,39.008
		c-0.282,0.861-0.51,1.754-0.815,2.607c-4.415,12.541-10.796,23.869-18.639,33.56c-16.972,20.972-40.887,34.132-67.417,34.132
		c-26.531,0-50.438-13.16-67.41-34.132c-7.843-9.691-14.224-21.02-18.639-33.56c-0.304-0.853-0.532-1.745-0.814-2.607
		c-3.969-12.133-6.239-25.254-6.239-39.008c0-2.842,0.18-5.629,0.36-8.416c-46.257,4.627-78.213,12.68-81.572,21.871l-0.029,10.24
		c-18.584-9.049-28.722-21.786-28.722-39.729c0-55.181,87.199-140.281,203.073-140.281c115.873,0,203.073,85.101,203.073,140.281
		C438.21,230.037,428.073,242.774,409.496,251.815z"/>
	<path id="XMLID_245_" d="M235.129,135.942c-41.968,0-75.98,41.277-75.98,92.186c0,50.907,34.013,92.186,75.98,92.186
		c41.976,0,75.99-41.278,75.99-92.186C311.119,177.22,277.105,135.942,235.129,135.942z M284.925,237.49
		c0.845,0.376,1.448,1.144,1.62,2.043l4.134,21.872c0.242,1.277-0.423,2.561-1.613,3.093c-1.191,0.539-2.592,0.188-3.391-0.838
		l-4.446-5.738c-8.69,14.075-22.357,25.865-38.123,28.926l-5.974,5.966c-1.097,1.095-2.881,1.095-3.976,0l-5.974-5.966
		c-15.766-3.061-29.434-14.851-38.131-28.926l-4.447,5.738c-0.791,1.025-2.192,1.377-3.381,0.838
		c-1.189-0.532-1.855-1.815-1.613-3.093l4.133-21.872c0.173-0.899,0.776-1.667,1.621-2.043c0.838-0.383,1.808-0.32,2.599,0.157
		l19.063,11.49c1.119,0.674,1.627,2.021,1.236,3.266c-0.399,1.244-1.581,2.043-2.881,1.956l-7.444-0.517
		c7.101,9.551,17.801,13.473,30.077,14.475v-62.563h-6.131c-0.994,0.735-2.208,1.189-3.53,1.189c-3.28,0-5.942-2.662-5.942-5.941
		c0-3.289,2.662-5.949,5.942-5.949c1.331,0,2.544,0.461,3.53,1.197h6.131v-8.596c-3.492-2.324-5.794-6.277-5.794-10.771
		c0-7.123,5.794-12.924,12.926-12.924c7.131,0,12.923,5.801,12.923,12.924c0,4.494-2.301,8.447-5.792,10.771v8.596h6.129
		c0.988-0.736,2.2-1.197,3.53-1.197c3.28,0,5.943,2.66,5.943,5.949c0,3.279-2.663,5.941-5.943,5.941
		c-1.331,0-2.536-0.454-3.53-1.189h-6.129v62.563c12.274-1.002,22.975-4.924,30.076-14.475l-7.445,0.517
		c-1.298,0.087-2.481-0.712-2.881-1.956c-0.391-1.245,0.119-2.592,1.238-3.266l19.063-11.49
		C283.117,237.17,284.087,237.107,284.925,237.49z"/>
</g>
<g>
</g>
<g>
</g>
<g>
</g>
<g>
</g>
<g>
</g>
<g>
</g>
<g>
</g>
<g>
</g>
<g>
</g>
<g>
</g>
<g>
</g>
<g>
</g>
<g>
</g>
<g>
</g>
<g>
</g>
</svg>
