<svg xmlns="http://www.w3.org/2000/svg" viewBox="0 0 512 512">
  <path d="M479.623 503.576l3.476-1.555 2.34-2.254 2.341-2.255 1.411-2.797 1.411-2.797 9.965-29.522 9.964-29.523.566-3.651.566-3.652-1.13-4.333-1.132-4.333-2.95-3.465-2.95-3.465-3.426-1.677-3.426-1.678-162.51-26.599-162.512-26.6-76.54-12.497-76.54-12.497-3.774 1.167-3.775 1.166-2.958 2.568-2.96 2.568-1.714 4.63-1.714 4.63.604 12.022.603 12.021 1.585 8.52 1.585 8.521 2.015 6.877 2.016 6.878 5.887 12.318 5.887 12.318 6.399 8.777 6.399 8.776 9.95 9.851 9.95 9.85 10.282 7.525 10.283 7.523 15.922 8.293 15.923 8.292 12.937 4.833 12.937 4.833 5.36 1.014 5.36 1.014 166.306-.04 166.305-.04zm-.547-122.316l.616-3.85 1.542-11.291 1.541-11.292.543-29.45.544-29.449-1.184-13.664-1.183-13.664-1.485-10.265-1.484-10.265-1.97-9.752-1.971-9.752-2.935-11.434-2.934-11.434-4.379-12.689-4.378-12.689-4.643-10.778-4.644-10.778-5.024-9.752-5.024-9.752-8.186-12.831-8.185-12.832-7.19-9.238-7.19-9.239-9.605-10.661-9.605-10.662-3.036-1.91-3.035-1.909-3.716-.003-3.716-.003-3.156 2.909-3.155 2.908-34.182 140.458-34.182 140.458.252.187.252.188 86.081 14.02 86.082 14.021 1.654-.005 1.654-.005zm-198.021-29.207l.431-1.332 40.357-163.31 40.358-163.31V19.57l-1.51-3.012-1.51-3.01-2.919-1.558-2.919-1.557h-4.774l-13.834 4.172-13.833 4.172-13.435 5.173-13.435 5.172-15.079 7.471-15.079 7.471-9.302 5.38-9.303 5.38-13.932 9.526-13.932 9.527-13.228 10.91-13.228 10.91-15.501 15.622-15.501 15.623-12.113 14.884-12.113 14.885-8.996 12.831-8.997 12.832-7.019 11.291-7.018 11.292-6.178 11.143-6.178 11.143-8.68 18.176-8.68 18.175-5.31 13.282-5.308 13.281-4.362 12.714-4.36 12.714.43.444.43.444 109.317 17.868 109.317 17.867 3.247.589 3.248.589z"/>
</svg>
