<svg xmlns="http://www.w3.org/2000/svg" viewBox="0 0 531 601">
  <path d="M66.063 589.422c-9.984-9.846-17.654-18.229-24.745-27.046-8.542-10.62-36.955-59.493-36.955-63.566 0-.577.765-.717 1.75-.32 2.56 1.03 16.88 5.42 23.25 7.128 11.296 3.028 23.581 6.167 26 6.641 1.375.27 7.225 1.45 13 2.623 15.885 3.225 19.832 3.938 28 5.057 4.125.565 10.65 1.49 14.5 2.055 17.66 2.593 36.124 3.323 93.75 3.707l61.75.41V1h19v525h121.5c80.042 0 121.5.34 121.5.996 0 .548-8.21 17.423-18.243 37.5L491.876 601H77.803zm238.3-83.317c0-1.791 17.174-52.609 18.195-53.839 1.536-1.851 111.075-1.851 112.611 0 1.021 1.23 18.194 52.048 18.194 53.839 0 .519-31.32.895-74.5.895-43.178 0-74.5-.376-74.5-.895zm-62.055-2.678c-3.891-2.908-19.144-10.503-25.945-12.92-8.734-3.104-16.534-5.72-19.5-6.539a901.437 901.437 0 01-8.5-2.426c-3.025-.878-7.525-2.056-10-2.618a553.19 553.19 0 01-8-1.884c-19.855-4.891-40.053-8.016-59-9.127-18.773-1.102-62.22-.508-88.857 1.215-10.12.655-16.712.702-17.29.125-.577-.577.55-3.758 2.957-8.343 2.14-4.075 7.85-15.06 12.69-24.41S32.361 414.325 35.66 408a20023.8 20023.8 0 0011.976-23 60439.71 60439.71 0 0125.226-48.5c3.152-6.05 9.11-17.525 13.24-25.5 7.893-15.24 15.177-29.21 25.42-48.75 3.386-6.463 9.392-18.05 13.345-25.75 3.954-7.7 9.219-17.825 11.7-22.5 2.482-4.675 8.682-16.6 13.778-26.5 5.096-9.9 11.176-21.6 13.512-26 2.336-4.4 7.621-14.525 11.745-22.5 14.497-28.033 23.088-44.597 28.268-54.5 2.876-5.5 8.75-16.75 13.05-25 4.301-8.25 11.11-21.3 15.13-29 4.02-7.7 8.773-17.029 10.561-20.73 1.788-3.702 3.589-6.74 4.001-6.75.413-.011.75 113.155.75 251.48s-.362 251.5-.805 251.5c-.444 0-2.356-1.158-4.25-2.573zm62.055-285.986c0-142.785.335-214.352 1-213.941.55.34 1 1.401 1 2.359s.383 2.168.85 2.691c.467.522 1.58 2.843 2.475 5.157.894 2.315 2.589 6.365 3.767 9a1020.43 1020.43 0 013.444 7.793c.716 1.65 3.175 7.275 5.464 12.5 2.29 5.225 4.747 10.85 5.461 12.5.715 1.65 2.478 5.6 3.92 8.777 1.44 3.178 2.62 5.98 2.62 6.225 0 .246 1.398 3.497 3.108 7.223 1.71 3.726 3.91 8.8 4.891 11.275.981 2.475 3.183 7.549 4.892 11.275 1.71 3.726 3.108 6.977 3.108 7.223 0 .246 1.074 2.822 2.386 5.725 2.94 6.505 6.388 14.293 8.091 18.277.706 1.65 2.462 5.6 3.903 8.777 1.441 3.178 2.62 5.98 2.62 6.225 0 .246 1.39 3.497 3.088 7.223 1.698 3.726 3.669 8.125 4.38 9.775.71 1.65 2.471 5.6 3.912 8.777 1.441 3.178 2.62 5.98 2.62 6.225 0 .246 1.399 3.497 3.109 7.223s3.91 8.8 4.891 11.275c.981 2.475 3.183 7.549 4.892 11.275 1.71 3.726 3.108 6.977 3.108 7.223 0 .246 1.074 2.822 2.386 5.725 2.94 6.505 6.388 14.293 8.091 18.277.706 1.65 2.462 5.6 3.903 8.777 1.441 3.178 2.62 5.98 2.62 6.225 0 .246 1.39 3.497 3.088 7.223 1.698 3.726 3.669 8.125 4.38 9.775.71 1.65 2.471 5.6 3.912 8.777 1.441 3.178 2.62 5.995 2.62 6.261 0 .528 3.655 8.984 4.996 11.56.458.88 2.485 5.605 4.505 10.5 2.02 4.896 4.984 11.746 6.586 15.222 1.602 3.476 2.913 6.511 2.913 6.746 0 .234 1.575 3.835 3.5 8.003 1.925 4.167 3.5 7.758 3.5 7.979 0 .221 1.35 3.35 3 6.952 1.65 3.603 3 6.73 3 6.952 0 .221 1.575 3.812 3.5 7.98 1.925 4.167 3.5 7.787 3.5 8.045s1.18 3.068 2.62 6.246c1.442 3.177 3.198 7.127 3.903 8.777.706 1.65 2.227 5.137 3.38 7.75l3.974 9c1.033 2.337 3.347 7.85 5.143 12.25 1.797 4.4 3.652 8.427 4.123 8.95.472.522.857 1.31.857 1.75 0 .44-42.075.8-93.5.8h-93.5z"/>
</svg>
