<svg xmlns="http://www.w3.org/2000/svg" viewBox="0 0 512 512">
  <path d="M295.463 507.25c108.172-.259 108.172-.259 108.825-3.234.365-1.66 3.732-6.364 7.627-10.652 3.836-4.223 7.39-8.453 7.896-9.4 1.02-1.908 4.184-1.752-81.02-3.995-75.341-1.983-138.023-4.17-188.255-6.568-18.015-.86-33.175-1.415-33.69-1.233-.513.183 6.56 8.32 15.72 18.082L149.217 508l19.037-.245c10.47-.136 67.714-.363 127.208-.505zm129.191-34.62c2.086-8.283 2.139-8.22-6.44-7.786-38.52 1.945-272.904-8.127-313.66-13.478-13.333-1.75-15.79-1.466-10.794 1.25 1.907 1.036 6.192 4.445 9.523 7.575 6.056 5.691 6.056 5.691 24.532 6.727 50.716 2.845 158.677 6.614 244.977 8.553 13.475.303 30.4.804 37.612 1.113 13.113.562 13.113.562 14.25-3.954zm-191.352-42.72c-.396-1.875-3.111-12.185-6.034-22.91-36.43-133.677-47.156-217.134-36.883-287 3.428-23.32 10.192-56.781 17.971-88.906 5.244-21.653 5.17-22.293-1.067-9.393-48.042 99.35-108.989 301.1-119.006 393.94-.662 6.141-.662 6.141 4.173 7.724 24.439 7.996 142.307 13.474 140.846 6.545zm123.49-11.377c0-.365-2.172-4.347-4.826-8.849-52.029-88.238-98.368-217.766-128.5-359.184-9.698-45.52-8.7-43.812-8.18-14 1.097 62.97 12.142 168.012 35.645 339 2.797 20.35 5.148 37.071 5.223 37.158.495.568 26.455 2.533 50.138 3.796 15.4.82 33.062 1.774 39.25 2.118 6.187.344 11.25.326 11.25-.039z"/>
</svg>
